<svg xmlns="http://www.w3.org/2000/svg" width="8" height="14" viewBox="0 0 8 14" fill="none">
  <path d="M7.77871 9.46844C7.84863 9.53812 7.9041 9.62091 7.94196 9.71208C7.97981 9.80324 7.9993 9.90098 7.9993 9.99969C7.9993 10.0984 7.97981 10.1961 7.94196 10.2873C7.9041 10.3785 7.84863 10.4613 7.77871 10.5309L4.77871 13.5309C4.70903 13.6009 4.62623 13.6563 4.53507 13.6942C4.44391 13.732 4.34617 13.7515 4.24746 13.7515C4.14875 13.7515 4.05101 13.732 3.95984 13.6942C3.86868 13.6563 3.78588 13.6009 3.71621 13.5309L0.716206 10.5309C0.575309 10.39 0.496155 10.1989 0.496155 9.99969C0.496155 9.80043 0.575309 9.60934 0.716206 9.46844C0.857102 9.32754 1.0482 9.24839 1.24746 9.24839C1.44671 9.24839 1.63781 9.32754 1.77871 9.46844L4.24808 11.9366L6.71746 9.46657C6.78723 9.39696 6.87005 9.34178 6.96116 9.3042C7.05228 9.26662 7.14991 9.24736 7.24847 9.24754C7.34703 9.24771 7.44459 9.26731 7.53557 9.30521C7.62656 9.34312 7.70917 9.39858 7.77871 9.46844ZM1.77871 4.53094L4.24808 2.06157L6.71746 4.53157C6.85835 4.67246 7.04945 4.75162 7.24871 4.75162C7.44796 4.75162 7.63906 4.67246 7.77996 4.53157C7.92085 4.39067 8.00001 4.19957 8.00001 4.00032C8.00001 3.80106 7.92085 3.60996 7.77996 3.46907L4.77996 0.469066C4.71028 0.399146 4.62748 0.343668 4.53632 0.305814C4.44516 0.26796 4.34742 0.248474 4.24871 0.248474C4.14999 0.248474 4.05226 0.26796 3.96109 0.305814C3.86993 0.343668 3.78713 0.399146 3.71746 0.469066L0.717456 3.46907C0.57656 3.60996 0.497405 3.80106 0.497405 4.00032C0.497405 4.19957 0.57656 4.39067 0.717456 4.53157C0.858352 4.67246 1.04945 4.75162 1.24871 4.75162C1.44796 4.75162 1.63906 4.67246 1.77996 4.53157L1.77871 4.53094Z" fill="#858585"/>
</svg>