<svg xmlns="http://www.w3.org/2000/svg" width="13" height="14" viewBox="0 0 13 14" fill="none">
  <path d="M11.9889 13.5L7.43889 8.95C7.07778 9.23889 6.6625 9.46759 6.19306 9.63611C5.72361 9.80463 5.22407 9.88889 4.69444 9.88889C3.38241 9.88889 2.27211 9.43437 1.36356 8.52533C0.455 7.6163 0.000481864 6.506 3.82128e-07 5.19444C-0.000481099 3.88289 0.454037 2.77259 1.36356 1.86356C2.27307 0.954519 3.38337 0.5 4.69444 0.5C6.00552 0.5 7.11606 0.954519 8.02606 1.86356C8.93606 2.77259 9.39033 3.88289 9.38889 5.19444C9.38889 5.72407 9.30463 6.22361 9.13611 6.69306C8.96759 7.1625 8.73889 7.57778 8.45 7.93889L13 12.4889L11.9889 13.5ZM4.69444 8.44444C5.59722 8.44444 6.3647 8.12859 6.99689 7.49689C7.62907 6.86518 7.94493 6.0977 7.94445 5.19444C7.94396 4.29119 7.62811 3.52394 6.99689 2.89272C6.36567 2.2615 5.59819 1.94541 4.69444 1.94444C3.7907 1.94348 3.02346 2.25957 2.39272 2.89272C1.76198 3.52587 1.44589 4.29311 1.44444 5.19444C1.443 6.09578 1.75909 6.86326 2.39272 7.49689C3.02635 8.13052 3.79359 8.44637 4.69444 8.44444Z" fill="#858585"/>
</svg>