<svg width="45" height="50" viewBox="0 0 45 50" fill="none" xmlns="http://www.w3.org/2000/svg">
<path fill-rule="evenodd" clip-rule="evenodd" d="M23.8365 47.8305L23.8095 47.835L23.6498 47.9137L23.6048 47.9227L23.5733 47.9137L23.4135 47.8327C23.3895 47.8267 23.3715 47.8312 23.3595 47.8462L23.3505 47.8687L23.3123 48.8317L23.3235 48.8767L23.346 48.906L23.58 49.0725L23.6138 49.0815L23.6408 49.0725L23.8748 48.906L23.9018 48.87L23.9108 48.8317L23.8725 47.871C23.8665 47.847 23.8545 47.8335 23.8365 47.8305ZM24.4305 47.5762L24.399 47.5807L23.985 47.79L23.9625 47.8125L23.9558 47.8372L23.9963 48.8047L24.0075 48.8317L24.0255 48.8497L24.4778 49.0567C24.5063 49.0642 24.528 49.0582 24.543 49.0387L24.552 49.0072L24.4755 47.6257C24.468 47.5972 24.453 47.5807 24.4305 47.5762ZM22.8218 47.5807C22.8119 47.5747 22.8 47.5728 22.7887 47.5753C22.7774 47.5778 22.7675 47.5846 22.761 47.5942L22.7475 47.6257L22.671 49.0072C22.6725 49.0342 22.6853 49.0522 22.7093 49.0612L22.743 49.0567L23.1953 48.8475L23.2178 48.8295L23.2245 48.8047L23.265 47.8372L23.2583 47.8102L23.2358 47.7877L22.8218 47.5807Z" fill="#178F9D"/>
<path fill-rule="evenodd" clip-rule="evenodd" d="M22.5 0C10.0733 0 0 10.0733 0 22.5C0 34.9268 10.0733 45 22.5 45C34.9268 45 45 34.9268 45 22.5C45 10.0733 34.9268 0 22.5 0ZM14.625 16.875C14.625 15.8408 14.8287 14.8168 15.2244 13.8614C15.6202 12.9059 16.2003 12.0378 16.9315 11.3065C17.6628 10.5753 18.5309 9.9952 19.4864 9.59945C20.4418 9.20369 21.4658 9 22.5 9C23.5342 9 24.5582 9.20369 25.5136 9.59945C26.4691 9.9952 27.3372 10.5753 28.0685 11.3065C28.7997 12.0378 29.3798 12.9059 29.7756 13.8614C30.1713 14.8168 30.375 15.8408 30.375 16.875C30.375 18.9636 29.5453 20.9666 28.0685 22.4435C26.5916 23.9203 24.5886 24.75 22.5 24.75C20.4114 24.75 18.4084 23.9203 16.9315 22.4435C15.4547 20.9666 14.625 18.9636 14.625 16.875ZM36.5805 33.714C34.8957 35.832 32.7544 37.5423 30.3163 38.7173C27.8783 39.8923 25.2064 40.5017 22.5 40.5C19.7936 40.5017 17.1217 39.8923 14.6837 38.7173C12.2456 37.5423 10.1043 35.832 8.4195 33.714C12.0668 31.0972 17.0438 29.25 22.5 29.25C27.9562 29.25 32.9333 31.0972 36.5805 33.714Z" fill="#178F9D"/>
</svg>
